<svg width="324" height="324" viewBox="0 0 324 324" fill="none" xmlns="http://www.w3.org/2000/svg">
<path fill-rule="evenodd" clip-rule="evenodd" d="M3 161.893L174.417 321L174.417 291.106L85.0551 208.384L98.6784 196.63H145.273H222.053C291.19 196.63 305.114 188.379 321 165.709C321 165.709 300.824 180.012 271.375 174.304C249.493 170.063 243.707 165.709 227.413 152.647L140.475 66.1324L174.187 32.9648V3L95.7586 75.7924L3 161.893ZM85.0551 115.703L122.086 81.3262L197.854 152.647C211.954 165.735 227.413 177.577 227.413 177.577H115.296C142.993 151.244 131.521 106.35 85.0551 115.703ZM67.7885 194.054L35.2505 161.929C35.2505 161.929 53.8891 142.876 67.7885 136.433C99.0492 121.942 113.28 141.959 95.7539 168.178C87.4655 180.577 67.7885 194.054 67.7885 194.054Z" stroke="white" stroke-width="5" stroke-linejoin="round"/>
</svg>
